<svg xmlns="http://www.w3.org/2000/svg" xmlns:xlink="http://www.w3.org/1999/xlink" fill="none" version="1.1" width="16" height="16" viewBox="0 0 16 16"><g><g><path d="M2.96967,5.21967C3.262563,4.9267767,3.737435,4.9267767,4.03033,5.21967C4.03033,5.21967,8,9.18934,8,9.18934C8,9.18934,11.96968,5.21967,11.96968,5.21967C12.26255,4.9267767,12.73745,4.9267767,13.0303,5.21967C13.3232,5.512563,13.3232,5.987435,13.0303,6.28033C13.0303,6.28033,8.53033,10.78033,8.53033,10.78033C8.23743,11.07322,7.76257,11.07322,7.46967,10.78033C7.46967,10.78033,2.96967,6.28033,2.96967,6.28033C2.6767767,5.987435,2.6767767,5.512563,2.96967,5.21967C2.96967,5.21967,2.96967,5.21967,2.96967,5.21967Z" fill-rule="evenodd" fill="#AE97CB" fill-opacity="0.44999998807907104"/></g></g></svg>