<svg xmlns="http://www.w3.org/2000/svg" xmlns:xlink="http://www.w3.org/1999/xlink" fill="none" version="1.1" width="20" height="20" viewBox="0 0 20 20"><g><g><ellipse cx="10" cy="10" rx="10" ry="10" fill="#AE97CB" fill-opacity="0.5"/></g><g><path d="M5.209209,5.209209C5.488155,4.9302635,5.940414,4.9302635,6.21936,5.209209C6.21936,5.209209,10,8.98985,10,8.98985C10,8.98985,13.78064,5.209209,13.78064,5.209209C14.05957,4.9302635,14.51186,4.9302635,14.79078,5.209209C15.0697,5.488155,15.0697,5.940414,14.79078,6.21936C14.79078,6.21936,11.01015,10,11.01015,10C11.01015,10,14.79078,13.78064,14.79078,13.78064C15.0697,14.05957,15.0697,14.51186,14.79078,14.79078C14.51186,15.0697,14.05957,15.0697,13.78064,14.79078C13.78064,14.79078,10,11.01015,10,11.01015C10,11.01015,6.21936,14.79078,6.21936,14.79078C5.940414,15.0697,5.488155,15.0697,5.209209,14.79078C4.9302635,14.51186,4.9302635,14.05957,5.209209,13.78064C5.209209,13.78064,8.98985,10,8.98985,10C8.98985,10,5.209209,6.21936,5.209209,6.21936C4.9302635,5.940414,4.9302635,5.488155,5.209209,5.209209C5.209209,5.209209,5.209209,5.209209,5.209209,5.209209Z" fill-rule="evenodd" fill="#FFFFFF" fill-opacity="1"/><path d="M14.28571,15.1Q14.62301,15.1,14.8615,14.8615Q15.1,14.62301,15.1,14.28571Q15.1,13.94842,14.8615,13.70993L11.15157,10L14.8615,6.29007Q15.1,6.05157,15.1,5.714285Q15.1,5.377,14.8615,5.138501Q14.62301,4.9,14.28571,4.9Q13.94842,4.9,13.70993,5.138499L10,8.84843L6.29007,5.138498Q6.05157,4.9,5.714285,4.9Q5.376997,4.9,5.138499,5.138499Q4.9,5.376997,4.9,5.714285Q4.9,6.05157,5.138499,6.29008L8.84843,10L5.138501,13.70993Q4.9,13.94841,4.9,14.28571Q4.9,14.62301,5.138501,14.8615Q5.377,15.1,5.714285,15.1Q6.05157,15.1,6.29008,14.8615L10,11.15157L13.70993,14.8615Q13.94842,15.1,14.28571,15.1ZM14.89998,14.28571Q14.89998,14.54017,14.72007,14.72007Q14.54017,14.89998,14.28571,14.89998Q14.03126,14.89998,13.85135,14.72007L10.07071,10.939440000000001Q10.056650000000001,10.925370000000001,10.03827,10.917760000000001Q10.01989,10.91015,10,10.91015Q9.98011,10.91015,9.96173,10.917760000000001Q9.943349999999999,10.925370000000001,9.92929,10.939440000000001L6.14865,14.72007Q5.9687339999999995,14.89998,5.714285,14.89998Q5.459839,14.89998,5.279918,14.72007Q5.1,14.54016,5.1,14.28571Q5.1,14.03126,5.279918,13.85136L9.060559999999999,10.07071Q9.074629999999999,10.05664,9.082239999999999,10.03827Q9.08985,10.01989,9.08985,10Q9.08985,9.98011,9.082239999999999,9.96173Q9.074629999999999,9.943349999999999,9.060559999999999,9.92929L5.27992,6.14865Q5.1,5.968731,5.1,5.714285Q5.1,5.45984,5.27992,5.27992Q5.45984,5.1,5.714285,5.1Q5.968731,5.0999999,6.14865,5.27992L9.92929,9.060559999999999Q9.943349999999999,9.074629999999999,9.96173,9.082239999999999Q9.98011,9.08985,10,9.08985Q10.01989,9.08985,10.03827,9.082239999999999Q10.05664,9.074629999999999,10.07071,9.060559999999999L13.85135,5.27992Q14.03126,5.1,14.28571,5.1Q14.54017,5.0999999,14.72007,5.279918Q14.89998,5.459839,14.89998,5.714285Q14.89998,5.9687339999999995,14.72007,6.14866L10.939440000000001,9.92929Q10.925370000000001,9.943349999999999,10.917760000000001,9.96173Q10.91015,9.98011,10.91015,10Q10.91015,10.01989,10.917760000000001,10.03827Q10.925370000000001,10.056650000000001,10.939440000000001,10.07071L14.72007,13.85135Q14.89998,14.03126,14.89998,14.28571Z" fill-rule="evenodd" fill="#FFFFFF" fill-opacity="1"/></g></g></svg>