<svg xmlns="http://www.w3.org/2000/svg" xmlns:xlink="http://www.w3.org/1999/xlink" fill="none" version="1.1" width="40" height="40" viewBox="0 0 40 40"><defs><clipPath id="master_svg0_9_3614"><rect x="0" y="0" width="40" height="40" rx="20"/></clipPath></defs><g clip-path="url(#master_svg0_9_3614)"><rect x="0" y="0" width="40" height="40" rx="20" fill="#B13BDB" fill-opacity="1"/><g><path d="M9.39199,30.4217C9.31892,30.4214,9.2485,30.3944,9.19424,30.3458C9.13998,30.2972,9.1057,30.2305,9.09794,30.1583C9.09794,30.1583,9.09794,30.1575,9.09794,30.1575C9.09794,30.1575,8.000899217,19.1177,8.000899217,19.1177C8.000899217,19.1177,8,19.09,8,19.09C8,18.92757,8.132185,18.79638,8.295843,18.79638C8.295843,18.79638,15.69909,18.79638,15.69909,18.79638C15.69909,18.79638,15.69909,30.4226,15.69909,30.4226C15.69909,30.4226,9.39199,30.4217,9.39199,30.4217C9.39199,30.4217,9.39199,30.4217,9.39199,30.4217ZM12.41336,27.5073C12.41336,27.5073,12.41336,27.5082,12.41336,27.5082C12.41336,27.7379,12.48197,27.9624,12.61054,28.1534C12.73906,28.3444,12.92178,28.4932,13.135570000000001,28.5811C13.349319999999999,28.669,13.58454,28.692,13.81146,28.6472C14.03843,28.6024,14.24688,28.4918,14.41049,28.3293C14.57409,28.1669,14.68553,27.96,14.730640000000001,27.7347C14.77579,27.5095,14.75263,27.276,14.66409,27.0638C14.57555,26.8516,14.42559,26.6702,14.23319,26.5426C14.040790000000001,26.415,13.81465,26.3469,13.58325,26.3469C13.58325,26.3469,13.58145,26.3469,13.58145,26.3469C12.934899999999999,26.3469,12.41155,26.8664,12.41065,27.5082C12.41065,27.5082,12.41336,27.5073,12.41336,27.5073C12.41336,27.5073,12.41336,27.5073,12.41336,27.5073ZM12.84499,20.3664C12.84499,20.528,12.977170000000001,20.6592,13.14082,20.6592C13.14082,20.6592,13.82782,20.6592,13.82782,20.6592C13.90607,20.6592,13.98109,20.6284,14.0364,20.5735C14.091709999999999,20.5186,14.12279,20.4441,14.12279,20.3664C14.12279,20.288800000000002,14.091709999999999,20.2143,14.0364,20.159399999999998C13.98109,20.1045,13.90607,20.073700000000002,13.82782,20.073700000000002C13.82782,20.073700000000002,13.13544,20.073700000000002,13.13544,20.073700000000002C13.05697,20.073700000000002,12.98174,20.104599999999998,12.92625,20.1597C12.87077,20.2148,12.83961,20.2895,12.83961,20.3673C12.83961,20.3673,12.83961,20.369999999999997,12.83961,20.369999999999997C12.83961,20.369999999999997,12.84499,20.3664,12.84499,20.3664C12.84499,20.3664,12.84499,20.3664,12.84499,20.3664ZM9.59881,20.3664C9.59881,20.528,9.731,20.6592,9.89376,20.6592C9.89376,20.6592,12.1463,20.6592,12.1463,20.6592C12.22452,20.6592,12.29954,20.6284,12.35486,20.5735C12.41017,20.5186,12.44125,20.4441,12.44125,20.3664C12.44125,20.288800000000002,12.41017,20.2143,12.35486,20.159399999999998C12.29954,20.1045,12.22452,20.073700000000002,12.1463,20.073700000000002C12.1463,20.073700000000002,9.88836,20.073700000000002,9.88836,20.073700000000002C9.810130000000001,20.073700000000002,9.73511,20.1045,9.6798,20.159399999999998C9.62449,20.2143,9.59341,20.288800000000002,9.59341,20.3664C9.59341,20.3664,9.59341,20.3692,9.59341,20.3692C9.59341,20.3692,9.59881,20.3664,9.59881,20.3664C9.59881,20.3664,9.59881,20.3664,9.59881,20.3664ZM18.4112,28.7462C18.2527,28.6931,18.103,28.617,17.96696,28.5204C17.96696,28.5204,17.97233,28.524,17.97233,28.524C17.97233,28.524,17.88242,28.4678,17.88242,28.4678C17.67293,28.3373,17.466070000000002,28.2028,17.261960000000002,28.0643C17.261960000000002,28.0643,17.17114,28.0009,17.17114,28.0009C17.05243,27.9161,16.99669,27.8786,16.93553,27.8822C16.719720000000002,27.8867,16.5039,27.8885,16.28808,27.8911C16.28808,27.8911,16.28808,19.7193,16.28808,19.7193C16.28808,19.7193,16.27642,19.032,16.27642,19.032C16.68197,18.77585,17.05605,18.53214,17.16843,18.4393C17.32132,18.13404,17.47235,17.87876,17.63962,17.63419C17.63962,17.63419,17.62434,17.65829,17.62434,17.65829C17.70078,17.53958,17.77723,17.42173,17.847340000000003,17.304830000000003C17.847340000000003,17.304830000000003,19.3976,14.721589999999999,19.3976,14.721589999999999C19.4695,14.60021,19.547800000000002,14.47883,19.625999999999998,14.35741C19.7564,14.16462,19.8949,13.934339999999999,20.0217,13.69688C20.0217,13.69688,20.0432,13.65315,20.0432,13.65315C20.1143,13.509,20.1391,13.346689999999999,20.1143,13.18811C20.1143,13.18811,20.1152,13.19257,20.1152,13.19257C20.1152,13.19257,20.1098,10.40764,20.1098,10.40764C20.1664,10.0024,20.3966,9.659639,20.7212,9.450767C20.7212,9.450767,20.726599999999998,9.447194,20.726599999999998,9.447194C21.016,9.18845,21.3833,9.0315919,21.7715,9.000892606C21.7715,9.000892606,21.7778,9.000892606,21.7778,9.000892606C21.7778,9.000892606,21.8345,9,21.8345,9C22.1411,9,22.4307,9.072301,22.6879,9.199944C22.6879,9.199944,22.677,9.194589,22.677,9.194589C22.8488,9.276708,22.9954,9.364184,23.133,9.462371C23.133,9.462371,23.124000000000002,9.456121,23.124000000000002,9.456121C23.124000000000002,9.456121,23.2193,9.518606,23.2193,9.518606C23.436,9.631967,23.5979,9.822985,23.669800000000002,10.05417C23.669800000000002,10.05417,23.671599999999998,10.06042,23.671599999999998,10.06042C23.8398,10.68167,23.993499999999997,11.246690000000001,24.1365,11.8135C24.1365,11.8135,24.1958,12.04468,24.1958,12.04468C24.2867,12.34817,24.3649,12.71503,24.4152,13.09082C24.4152,13.09082,24.4198,13.128309999999999,24.4198,13.128309999999999C24.266,14.533280000000001,23.970100000000002,15.81504,23.542099999999998,17.036160000000002C23.542099999999998,17.036160000000002,23.579900000000002,16.91297,23.579900000000002,16.91297C23.579900000000002,16.91297,30.4976,16.90316,30.4976,16.90316C30.4976,16.90316,30.5227,16.90316,30.5227,16.90316C30.7323,16.90316,30.9395,16.94745,31.1305,17.03302C31.3215,17.11863,31.492,17.24358,31.6306,17.39961C31.7692,17.555590000000002,31.8728,17.73908,31.9345,17.9379C31.9962,18.13671,32.0146,18.34628,31.9885,18.55267C31.9885,18.55267,31.9894,18.54553,31.9894,18.54553C32.008700000000005,18.85737,31.9445,19.1687,31.8033,19.448C31.6621,19.7272,31.4489,19.9643,31.1855,20.1353C31.1855,20.1353,31.1783,20.139699999999998,31.1783,20.139699999999998C31.4306,20.506,31.5487,20.9471,31.5128,21.389400000000002C31.5128,21.389400000000002,31.5128,21.3831,31.5128,21.3831C31.5443,21.7336,31.4621,22.084899999999998,31.2781,22.3857C31.0942,22.686500000000002,30.8181,22.921,30.4904,23.055C30.4904,23.055,30.4796,23.0586,30.4796,23.0586C30.6807,23.4145,30.7741,23.8206,30.7485,24.227899999999998C30.7485,24.227899999999998,30.7485,24.2225,30.7485,24.2225C30.768,24.5277,30.7043,24.8324,30.5641,25.1046C30.4239,25.3768,30.2124,25.6065,29.9517,25.7694C29.9517,25.7694,29.9446,25.7739,29.9446,25.7739C30.1282,26.1822,30.1978,26.632,30.146,27.0762C30.146,27.0762,30.1469,27.0646,30.1469,27.0646C30.1469,27.0646,30.1469,27.2324,30.1469,27.2324C30.134,27.4523,30.0765,27.6673,29.978,27.8646C29.8794,28.0618,29.7418,28.2374,29.5733,28.3806C29.4048,28.5239,29.2089,28.6319,28.9974,28.6983C28.7858,28.7646,28.563,28.7879,28.3421,28.7668C28.3421,28.7668,28.3484,28.7677,28.3484,28.7677C28.3484,28.7677,24.3658,28.7677,24.3658,28.7677C24.3658,28.7677,24.3523,28.7686,24.3523,28.7686C24.3523,28.7686,24.3379,28.7677,24.3379,28.7677C24.3379,28.7677,24.3388,28.7677,24.3388,28.7677C24.3388,28.7677,19.0244,28.7677,19.0244,28.7677C18.9786,28.7677,18.9309,28.7677,18.880499999999998,28.7748C18.8194,28.7784,18.7547,28.7837,18.6881,28.7837C18.6881,28.7837,18.674599999999998,28.7837,18.674599999999998,28.7837C18.5838,28.7838,18.4934,28.7718,18.4058,28.7481C18.4058,28.7481,18.413,28.7498,18.413,28.7498C18.413,28.7498,18.4112,28.7462,18.4112,28.7462C18.4112,28.7462,18.4112,28.7462,18.4112,28.7462ZM13.00235,27.5082C13.00239,27.4331,13.01737,27.3588,13.04638,27.2894C13.07535,27.2201,13.117840000000001,27.1571,13.17138,27.1041C13.224879999999999,27.051,13.288409999999999,27.009,13.35831,26.9803C13.42821,26.9516,13.50311,26.9369,13.57873,26.937C13.654399999999999,26.937,13.72925,26.9518,13.799109999999999,26.9806C13.868970000000001,27.0094,13.932459999999999,27.0516,13.98587,27.1047C14.03933,27.1579,14.08169,27.2209,14.11057,27.2903C14.13949,27.3597,14.1543,27.434,14.154250000000001,27.5091C14.15413,27.6607,14.093350000000001,27.8061,13.98523,27.9132C13.87715,28.0204,13.73059,28.0805,13.57787,28.0804C13.42512,28.0803,13.27864,28.0199,13.170729999999999,27.9126C13.06278,27.8053,13.002220000000001,27.6598,13.00235,27.5082C13.00235,27.5082,13.00235,27.5082,13.00235,27.5082Z" fill="#FFFFFF" fill-opacity="1"/></g></g></svg>