<svg xmlns="http://www.w3.org/2000/svg" xmlns:xlink="http://www.w3.org/1999/xlink" fill="none" version="1.1" width="125.48681640625" height="21.7515869140625" viewBox="0 0 125.48681640625 21.7515869140625"><g><path d="M22.6384,8.21967C22.4898,7.76007,22.0822,7.43363,21.5999,7.39017C21.5999,7.39017,15.0487,6.79532,15.0487,6.79532C15.0487,6.79532,12.4583,0.732003,12.4583,0.732003C12.2672,0.287641,11.8322,0,11.3489,0C10.8656,0,10.4306,0.287641,10.2396,0.733042C10.2396,0.733042,7.64906,6.79532,7.64906,6.79532C7.64906,6.79532,1.09688,7.39017,1.09688,7.39017C0.615455,7.43467,0.208844,7.76007,0.0593955,8.21967C-0.0900529,8.67927,0.0479661,9.18338,0.412149,9.50115C0.412149,9.50115,5.36404,13.844,5.36404,13.844C5.36404,13.844,3.90384,20.2762,3.90384,20.2762C3.79699,20.7491,3.98056,21.238,4.37297,21.5216C4.58389,21.674,4.83066,21.7516,5.07951,21.7516C5.29408,21.7516,5.50691,21.6938,5.69792,21.5795C5.69792,21.5795,11.3489,18.2021,11.3489,18.2021C11.3489,18.2021,16.9978,21.5795,16.9978,21.5795C17.4112,21.8281,17.9323,21.8055,18.3238,21.5216C18.7164,21.2371,18.8998,20.7481,18.7929,20.2762C18.7929,20.2762,17.3327,13.844,17.3327,13.844C17.3327,13.844,22.2846,9.50201,22.2846,9.50201C22.6488,9.18338,22.7879,8.68013,22.6384,8.21967C22.6384,8.21967,22.6384,8.21967,22.6384,8.21967C22.6384,8.21967,22.6384,8.21967,22.6384,8.21967ZM48.3357,8.21967C48.1871,7.76007,47.7795,7.43363,47.2972,7.39017C47.2972,7.39017,40.746,6.79532,40.746,6.79532C40.746,6.79532,38.1556,0.732003,38.1556,0.732003C37.9645,0.287641,37.5295,0,37.0462,0C36.5629,0,36.1279,0.287641,35.9369,0.733042C35.9369,0.733042,33.3463,6.79532,33.3463,6.79532C33.3463,6.79532,26.7941,7.39017,26.7941,7.39017C26.3127,7.43467,25.9061,7.76007,25.7567,8.21967C25.6072,8.67927,25.7452,9.18338,26.1094,9.50115C26.1094,9.50115,31.0613,13.844,31.0613,13.844C31.0613,13.844,29.6011,20.2762,29.6011,20.2762C29.4943,20.7491,29.6778,21.238,30.0702,21.5216C30.2812,21.674,30.5279,21.7516,30.7768,21.7516C30.9913,21.7516,31.2042,21.6938,31.3952,21.5795C31.3952,21.5795,37.0462,18.2021,37.0462,18.2021C37.0462,18.2021,42.6951,21.5795,42.6951,21.5795C43.1085,21.8281,43.6296,21.8055,44.0211,21.5216C44.4137,21.2371,44.5971,20.7481,44.4902,20.2762C44.4902,20.2762,43.03,13.844,43.03,13.844C43.03,13.844,47.9819,9.50201,47.9819,9.50201C48.3461,9.18338,48.4852,8.68013,48.3357,8.21967C48.3357,8.21967,48.3357,8.21967,48.3357,8.21967C48.3357,8.21967,48.3357,8.21967,48.3357,8.21967ZM74.0329,8.21967C73.8843,7.76007,73.4767,7.43363,72.9944,7.39017C72.9944,7.39017,66.4432,6.79532,66.4432,6.79532C66.4432,6.79532,63.8528,0.732003,63.8528,0.732003C63.6617,0.287641,63.2267,0,62.7434,0C62.2601,0,61.8251,0.287641,61.6341,0.733042C61.6341,0.733042,59.0436,6.79532,59.0436,6.79532C59.0436,6.79532,52.4914,7.39017,52.4914,7.39017C52.01,7.43467,51.6034,7.76007,51.4539,8.21967C51.3045,8.67927,51.4425,9.18338,51.8067,9.50115C51.8067,9.50115,56.7586,13.844,56.7586,13.844C56.7586,13.844,55.2984,20.2762,55.2984,20.2762C55.1915,20.7491,55.3751,21.238,55.7675,21.5216C55.9784,21.674,56.2252,21.7516,56.474,21.7516C56.6886,21.7516,56.9014,21.6938,57.0925,21.5795C57.0925,21.5795,62.7434,18.2021,62.7434,18.2021C62.7434,18.2021,68.3923,21.5795,68.3923,21.5795C68.8057,21.8281,69.3268,21.8055,69.7183,21.5216C70.1109,21.2371,70.2943,20.7481,70.1874,20.2762C70.1874,20.2762,68.7272,13.844,68.7272,13.844C68.7272,13.844,73.6791,9.50201,73.6791,9.50201C74.0433,9.18338,74.1824,8.68013,74.0329,8.21967C74.0329,8.21967,74.0329,8.21967,74.0329,8.21967C74.0329,8.21967,74.0329,8.21967,74.0329,8.21967ZM99.7302,8.21967C99.5816,7.76007,99.174,7.43363,98.6917,7.39017C98.6917,7.39017,92.1405,6.79532,92.1405,6.79532C92.1405,6.79532,89.5501,0.732003,89.5501,0.732003C89.359,0.287641,88.924,0,88.4407,0C87.9574,0,87.5224,0.287641,87.3314,0.733042C87.3314,0.733042,84.7409,6.79532,84.7409,6.79532C84.7409,6.79532,78.1887,7.39017,78.1887,7.39017C77.7073,7.43467,77.3006,7.76007,77.1512,8.21967C77.0017,8.67927,77.1398,9.18338,77.5039,9.50115C77.5039,9.50115,82.4558,13.844,82.4558,13.844C82.4558,13.844,80.9956,20.2762,80.9956,20.2762C80.8888,20.7491,81.0724,21.238,81.4648,21.5216C81.6757,21.674,81.9225,21.7516,82.1713,21.7516C82.3859,21.7516,82.5987,21.6938,82.7897,21.5795C82.7897,21.5795,88.4407,18.2021,88.4407,18.2021C88.4407,18.2021,94.0896,21.5795,94.0896,21.5795C94.503,21.8281,95.0241,21.8055,95.4156,21.5216C95.8082,21.2371,95.9916,20.7481,95.8847,20.2762C95.8847,20.2762,94.4245,13.844,94.4245,13.844C94.4245,13.844,99.3764,9.50201,99.3764,9.50201C99.7406,9.18338,99.8797,8.68013,99.7302,8.21967C99.7302,8.21967,99.7302,8.21967,99.7302,8.21967C99.7302,8.21967,99.7302,8.21967,99.7302,8.21967ZM125.427,8.21967C125.279,7.76007,124.871,7.43363,124.389,7.39017C124.389,7.39017,117.838,6.79532,117.838,6.79532C117.838,6.79532,115.247,0.732003,115.247,0.732003C115.056,0.287641,114.621,0,114.138,0C113.655,0,113.22,0.287641,113.029,0.733042C113.029,0.733042,110.438,6.79532,110.438,6.79532C110.438,6.79532,103.886,7.39017,103.886,7.39017C103.405,7.43467,102.998,7.76007,102.848,8.21967C102.699,8.67927,102.837,9.18338,103.201,9.50115C103.201,9.50115,108.153,13.844,108.153,13.844C108.153,13.844,106.693,20.2762,106.693,20.2762C106.586,20.7491,106.77,21.238,107.162,21.5216C107.373,21.674,107.62,21.7516,107.869,21.7516C108.083,21.7516,108.296,21.6938,108.487,21.5795C108.487,21.5795,114.138,18.2021,114.138,18.2021C114.138,18.2021,119.787,21.5795,119.787,21.5795C120.2,21.8281,120.721,21.8055,121.113,21.5216C121.505,21.2371,121.689,20.7481,121.582,20.2762C121.582,20.2762,120.122,13.844,120.122,13.844C120.122,13.844,125.074,9.50201,125.074,9.50201C125.438,9.18338,125.577,8.68013,125.427,8.21967C125.427,8.21967,125.427,8.21967,125.427,8.21967C125.427,8.21967,125.427,8.21967,125.427,8.21967Z" fill="#FDCA32" fill-opacity="1"/></g></svg>