<svg xmlns="http://www.w3.org/2000/svg" xmlns:xlink="http://www.w3.org/1999/xlink" fill="none" version="1.1" width="17.000000886485836" height="17.000035218759436" viewBox="0 0 17.000000886485836 17.000035218759436"><g transform="matrix(1,5.2146120310681e-8,5.2146120310681e-8,-1,-8.8648583557654e-7,34.00006866455078)"><path d="M0,32.50003433227539L0,24.50003433227539Q0,21.39343433227539,2.1967,19.19673433227539Q4.3934,17.00003433227539,7.5,17.00003433227539L15.5,17.00003480911239C16.3284,17.00003480911239,17,17.67160733227539,17,18.50003433227539C17,19.32846433227539,16.3284,20.00003433227539,15.5,20.00003433227539L7.5,20.00003433227539Q5.63604,20.00003433227539,4.31802,21.31805433227539Q3,22.636074332275392,3,24.50003433227539L3,32.50003433227539C3,33.32853433227539,2.32843,34.00003433227539,1.5,34.00003433227539C0.671573,34.00003433227539,0,33.32853433227539,0,32.50003433227539Z" fill-rule="evenodd" fill="#B13BDB" fill-opacity="1"/></g></svg>