<svg xmlns="http://www.w3.org/2000/svg" xmlns:xlink="http://www.w3.org/1999/xlink" fill="none" version="1.1" width="17.00000417727361" height="17.00003850954056" viewBox="0 0 17.00000417727361 17.00003850954056"><g transform="matrix(-1,-2.4572148049628595e-7,-2.4572148049628595e-7,1,34.00000835454824,0.0000041772661948827165)"><path d="M17.00000417727361,15.500004177265168L17.00000417727361,7.500004177265168Q17.00000417727361,4.393404177265168,19.19670417727361,2.1967041772651683Q21.39340417727361,0.000004177265168436861,24.50000417727361,0.000004177265168436861L32.50000417727361,0.000004654102168436861C33.32840417727361,0.000004654102168436861,34.00000417727361,0.6715771772651684,34.00000417727361,1.5000041772651684C34.00000417727361,2.3284341772651684,33.32840417727361,3.0000041772651684,32.50000417727361,3.0000041772651684L24.50000417727361,3.0000041772651684Q22.63604417727361,3.0000041772651684,21.31802417727361,4.318024177265168Q20.00000417727361,5.636044177265169,20.00000417727361,7.500004177265168L20.00000417727361,15.500004177265168C20.00000417727361,16.328504177265167,19.32843417727361,17.00000417726517,18.50000417727361,17.00000417726517C17.67157717727361,17.00000417726517,17.00000417727361,16.328504177265167,17.00000417727361,15.500004177265168Z" fill-rule="evenodd" fill="#B13BDB" fill-opacity="1"/></g></svg>